<svg xmlns="http://www.w3.org/2000/svg" version="1.1" xmlns:xlink="http://www.w3.org/1999/xlink" xmlns:svgjs="http://svgjs.dev/svgjs" width="1500" height="1500" viewBox="0 0 1500 1500"><rect width="1500" height="1500" fill="#000000"></rect><g transform="matrix(0.6666666666666666,0,0,0.6666666666666666,250.88393442622936,244.40971659919023)"><svg viewBox="0 0 244 247" data-background-color="#ffffff" preserveAspectRatio="xMidYMid meet" height="1518" width="1500" xmlns="http://www.w3.org/2000/svg" xmlns:xlink="http://www.w3.org/1999/xlink"><g id="tight-bounds" transform="matrix(1,0,0,1,-0.21567999999996346,-0.09999999999999432)"><svg viewBox="0 0 244.43135999999996 247.2" height="247.2" width="244.43135999999996"><g><svg></svg></g><g><svg viewBox="0 0 244.43135999999996 247.2" height="247.2" width="244.43135999999996"><g transform="matrix(1,0,0,1,0,79.88930646387833)"><svg viewBox="0 0 244.43135999999996 87.42138707224333" height="87.42138707224333" width="244.43135999999996"><g><svg viewBox="0 0 244.43135999999996 87.42138707224333" height="87.42138707224333" width="244.43135999999996"><g><svg viewBox="0 0 244.43135999999996 87.42138707224333" height="87.42138707224333" width="244.43135999999996"><g><svg viewBox="0 0 244.43135999999996 87.42138707224333" height="87.42138707224333" width="244.43135999999996"><g id="textblocktransform"><svg viewBox="0 0 244.43135999999996 87.42138707224333" height="87.42138707224333" width="244.43135999999996" id="textblock"><g><svg viewBox="0 0 244.43135999999996 87.42138707224333" height="87.42138707224333" width="244.43135999999996"><g transform="matrix(1,0,0,1,0,0)"><svg width="244.43135999999996" viewBox="4.32 -36.38 102.72999999999999 36.75" height="87.42138707224333" data-palette-color="#1d597d"><path d="M10.79-20.58L10.79 0.15Q9.62 0 6.27 0L6.27 0 4.32 0 4.32-32.57Q5.88-32.47 7.76-32.47 9.64-32.47 10.42-32.67L10.42-32.67 18.63-18.73 26.51-32.67Q27.29-32.47 29.49-32.47 31.69-32.47 33.25-32.57L33.25-32.57 33.25 0 31.3 0Q27.95 0 26.78 0.15L26.78 0.15 26.78-21.73 18.8-7.45 10.79-20.58ZM39.3-12.62L39.3-12.62Q39.3-15.31 40.22-17.76 41.14-20.21 42.84-22.05L42.84-22.05Q46.58-26 52.54-26L52.54-26Q58.47-26 61.96-22.27L61.96-22.27Q65.31-18.7 65.31-13.01L65.31-13.01Q65.31-7.32 61.86-3.59L61.86-3.59Q58.23 0.37 52.22 0.37L52.22 0.37Q46.02 0.37 42.5-3.52L42.5-3.52Q39.3-7.06 39.3-12.62ZM45.24-12.77L45.24-12.77Q45.24-11.23 45.75-9.79 46.26-8.35 47.21-7.32L47.21-7.32Q49.24-5.1 52.54-5.1L52.54-5.1Q55.59-5.1 57.35-7.28L57.35-7.28Q59.06-9.38 59.06-12.74L59.06-12.74Q59.06-16.16 57.3-18.26L57.3-18.26Q55.42-20.51 52.15-20.51L52.15-20.51Q48.83-20.51 46.95-18.12L46.95-18.12Q45.24-15.92 45.24-12.77ZM76.04-36.38L76.04-2.73Q76.04-0.63 76.14 0L76.14 0 69.94 0 69.94-36.38 76.04-36.38ZM100.41-1.37L100.41-1.37Q97.31 0.37 94.21 0.37 91.11 0.37 88.79-0.61 86.47-1.59 84.83-3.3L84.83-3.3Q81.46-6.81 81.46-12.43L81.46-12.43Q81.46-18.24 85.37-22.09L85.37-22.09Q89.3-26 95.43-26L95.43-26Q97.31-26 99.11-25.51L99.11-25.51 99.11-36.38 105.1-36.38 105.1-10.28Q105.1-7.03 105.4-6.03 105.71-5.03 106.08-4.57 106.46-4.1 107.05-3.69L107.05-3.69 102.46 0.37Q101.19-0.32 100.41-1.37ZM95.35-5.25L95.35-5.25Q97.4-5.25 99.11-6.03L99.11-6.03 99.11-19.56Q97.4-20.26 95.4-20.26 93.4-20.26 91.97-19.73 90.54-19.19 89.52-18.24L89.52-18.24Q87.37-16.24 87.37-13.04L87.37-13.04Q87.37-9.55 89.32-7.47L89.32-7.47Q91.42-5.25 95.35-5.25Z" opacity="1" transform="matrix(1,0,0,1,0,0)" fill="#ffffff" class="wordmark-text-0" data-fill-palette-color="primary" id="text-0"></path></svg></g></svg></g></svg></g></svg></g><g></g></svg></g></svg></g></svg></g><path d="M0 73.889L0 1 244.431 1 244.431 73.889 236.548 73.889 236.548 8.884 7.884 8.884 7.884 73.889 0 73.889M0 173.311L0 246.2 244.431 246.2 244.431 173.311 236.548 173.311 236.548 238.316 7.884 238.316 7.884 173.311 0 173.311" fill="#ffffff" stroke="transparent" data-fill-palette-color="tertiary"></path></svg></g><defs></defs></svg><rect width="244.43135999999996" height="247.2" fill="none" stroke="none" visibility="hidden"></rect></g></svg></g></svg>